<svg id="Layer_1_copy_2" height="512" viewBox="0 0 64 64" width="512" xmlns="http://www.w3.org/2000/svg" data-name="Layer 1 copy 2"><path d="m31.889 21a9.887 9.887 0 0 0 17-6.869 10.1 10.1 0 0 0 -9.889-10.131z" fill="#6a951f"/><g opacity=".1"><path d="m45 6.128a9.611 9.611 0 0 0 -6-2.128l-7.111 17a9.929 9.929 0 0 0 1.846 1.487c12.352-1.47 11.765-12.404 11.265-16.359z" fill="#231f20"/></g><path d="m22.375 37 14.625-9a2.33 2.33 0 0 1 3.375.375 2.255 2.255 0 0 1 -.375 2.625c-1.333 1.667-5.375 4.958-6.708 6.625z" fill="#1d7d9f"/><circle cx="25" cy="25" fill="#fbe41a" r="1"/><circle cx="50" cy="26" fill="#91b472" r="1"/><path d="m41.887 11.13a9.887 9.887 0 1 1 -19.774 0 10.1 10.1 0 0 1 9.887-10.13 10.1 10.1 0 0 1 9.887 10.13z" fill="#fcc325"/><path d="m11.235 64 13.765-18h23l15-14v-6l-15 12-25.734-2a8.59 8.59 0 0 0 -5.707 2.17l-16.559 14.83v11z" fill="#23a8cc"/><path d="m31 29a1 1 0 0 1 -1-1v-3a1 1 0 0 1 2 0v3a1 1 0 0 1 -1 1z" fill="#91b472"/><path d="m45 30a1 1 0 0 1 -1-1v-3a1 1 0 0 1 2 0v3a1 1 0 0 1 -1 1z" fill="#fbe41a"/><path d="m25 32a1 1 0 0 1 -1-1v-3a1 1 0 0 1 2 0v3a1 1 0 0 1 -1 1z" fill="#fbe41a"/><path d="m50 33a1 1 0 0 1 -1-1v-3a1 1 0 0 1 2 0v3a1 1 0 0 1 -1 1z" fill="#91b472"/><g fill="#6a951f"><path d="m32.464 15.818h-1.287a2.444 2.444 0 0 1 -2.44-2.441v-.741a1 1 0 1 1 2 0v.741a.441.441 0 0 0 .44.441h1.287a.441.441 0 0 0 .44-.441v-.545a.441.441 0 0 0 -.185-.358l-2.913-1.833a2.468 2.468 0 0 1 -1.07-2.018 2.444 2.444 0 0 1 2.44-2.441h1.287a2.444 2.444 0 0 1 2.437 2.441v.2a1 1 0 0 1 -2 0v-.2a.441.441 0 0 0 -.44-.441h-1.283a.441.441 0 0 0 -.256.8l2.913 1.833a2.468 2.468 0 0 1 1.07 2.018v.545a2.444 2.444 0 0 1 -2.44 2.44z"/><path d="m32 8a1 1 0 0 1 -1-1v-1a1 1 0 0 1 2 0v1a1 1 0 0 1 -1 1z"/><path d="m32 17a1 1 0 0 1 -1-1v-1a1 1 0 0 1 2 0v1a1 1 0 0 1 -1 1z"/></g><g opacity=".1"><path d="m22.266 36a8.59 8.59 0 0 0 -5.707 2.17l-4.418 3.93a40.236 40.236 0 0 1 18.859-1.475c12 2.125 16.25 1 20.875-3 3.6-3.117 8.939-7.54 11.125-9.347v-2.278l-15 12z" fill="#fff"/></g><g opacity=".2"><path d="m32 1a10.1 10.1 0 0 0 -9.887 10.13 9.9 9.9 0 0 0 .245 2.166c4.766.1 12.953-.635 18.777-5.98a9.971 9.971 0 0 0 -9.135-6.316z" fill="#fff"/></g></svg>