<?xml version="1.0"?>
<svg xmlns="http://www.w3.org/2000/svg" xmlns:xlink="http://www.w3.org/1999/xlink" version="1.1" id="Capa_1" x="0px" y="0px" viewBox="0 0 512 512" style="enable-background:new 0 0 512 512;" xml:space="preserve" width="512px" height="512px"><g><g>
	<g>
		<g>
			<polygon points="136.533,204.8 204.8,204.8 204.8,153.6 136.533,153.6 85.333,153.6 85.333,204.8 119.467,204.8    " data-original="#000000" class="active-path" data-old_color="#000000" fill="#FFFFFF"/>
			<path d="M145.067,20.042L90.25,136.533h109.633L145.067,20.042z M153.6,93.867v17.067c0,4.713-3.821,8.533-8.533,8.533     s-8.533-3.82-8.533-8.533V93.867c-2.263,0.001-4.434-0.898-6.035-2.499c-1.6-1.6-2.499-3.771-2.499-6.035     c-0.001-2.263,0.898-4.434,2.499-6.035s3.771-2.499,6.035-2.499c0-4.713,3.82-8.533,8.533-8.533s8.533,3.82,8.533,8.533     c4.713,0,8.533,3.82,8.533,8.533S158.313,93.867,153.6,93.867z" data-original="#000000" class="active-path" data-old_color="#000000" fill="#FFFFFF"/>
			<polygon points="221.867,204.8 230.4,204.8 264.533,204.8 264.533,153.6 221.867,153.6    " data-original="#000000" class="active-path" data-old_color="#000000" fill="#FFFFFF"/>
			<path d="M332.8,136.533c14.138,0,25.6-11.461,25.6-25.6s-11.462-25.6-25.6-25.6c-2.263,0.001-4.434-0.898-6.035-2.499     c-1.6-1.6-2.499-3.771-2.499-6.035c0.039-20.256-14.196-37.736-34.04-41.801c-19.844-4.064-39.805,6.412-47.733,25.052     l35.992,76.482H332.8z" data-original="#000000" class="active-path" data-old_color="#000000" fill="#FFFFFF"/>
			<polygon points="238.933,247.467 281.6,247.467 281.6,221.867 273.067,221.867 238.933,221.867    " data-original="#000000" class="active-path" data-old_color="#000000" fill="#FFFFFF"/>
			<polygon points="259.618,136.533 225.502,64.034 225.451,63.94 199.381,8.533 158.515,8.533 218.752,136.533    " data-original="#000000" class="active-path" data-old_color="#000000" fill="#FFFFFF"/>
			<path d="M145.067,298.667c-9.426,0-17.067,7.641-17.067,17.067v34.133h34.133v-34.133     C162.133,306.308,154.492,298.667,145.067,298.667z" data-original="#000000" class="active-path" data-old_color="#000000" fill="#FFFFFF"/>
			<path d="M341.333,375.467c-9.426,0-17.067,7.641-17.067,17.067v34.133H358.4v-34.133     C358.4,383.108,350.759,375.467,341.333,375.467z" data-original="#000000" class="active-path" data-old_color="#000000" fill="#FFFFFF"/>
			<path d="M298.667,256c0.001,2.263-0.898,4.434-2.499,6.035c-1.6,1.6-3.771,2.499-6.035,2.499H281.6V281.6     c0,4.713-3.821,8.533-8.533,8.533c-4.713,0-8.533-3.821-8.533-8.533v-17.067h-42.667v21.208l53.935,38.526H477.4l-104.725-76.8     h-74.008V256z" data-original="#000000" class="active-path" data-old_color="#000000" fill="#FFFFFF"/>
			<path d="M435.2,375.467c-9.426,0-17.067,7.641-17.067,17.067v34.133h34.133v-34.133     C452.267,383.108,444.626,375.467,435.2,375.467z" data-original="#000000" class="active-path" data-old_color="#000000" fill="#FFFFFF"/>
			<polygon points="119.467,247.467 213.333,247.467 221.867,247.467 221.867,221.867 213.333,221.867 136.533,221.867      119.467,221.867 76.8,221.867 68.267,221.867 68.267,247.467 76.8,247.467    " data-original="#000000" class="active-path" data-old_color="#000000" fill="#FFFFFF"/>
			<path d="M503.467,486.4h-8.533V341.333H281.6V486.4h-17.067V337.192l-42.667-30.476V486.4H204.8V264.533H85.333V486.4H68.267     V306.716L25.6,337.192V486.4H8.533C3.82,486.4,0,490.221,0,494.933s3.82,8.533,8.533,8.533h494.933     c4.713,0,8.533-3.82,8.533-8.533S508.18,486.4,503.467,486.4z M179.2,486.4h-17.067v-76.8H128v76.8h-17.067v-76.8     c0.011-9.421,7.645-17.056,17.067-17.067h34.133c9.421,0.011,17.056,7.646,17.067,17.067V486.4z M179.2,358.4     c0.001,2.263-0.898,4.434-2.499,6.035c-1.6,1.6-3.771,2.499-6.035,2.499h-51.2c-2.263,0.001-4.434-0.898-6.035-2.499     c-1.6-1.6-2.499-3.771-2.499-6.035v-42.667c0-18.851,15.282-34.133,34.133-34.133s34.133,15.282,34.133,34.133V358.4z      M375.467,435.2c0.001,2.263-0.898,4.434-2.499,6.035c-1.6,1.6-3.771,2.499-6.035,2.499h-51.2     c-2.263,0.001-4.434-0.898-6.035-2.499c-1.6-1.6-2.499-3.771-2.499-6.035v-42.667c0-18.851,15.282-34.133,34.133-34.133     c18.851,0,34.133,15.282,34.133,34.133V435.2z M469.333,435.2c0.001,2.263-0.898,4.434-2.499,6.035     c-1.6,1.6-3.771,2.499-6.035,2.499h-51.2c-2.263,0.001-4.434-0.898-6.035-2.499c-1.6-1.6-2.499-3.771-2.499-6.035v-42.667     c0-18.851,15.282-34.133,34.133-34.133s34.133,15.282,34.133,34.133V435.2z" data-original="#000000" class="active-path" data-old_color="#000000" fill="#FFFFFF"/>
		</g>
	</g>
</g></g> </svg>
